<svg width="14" height="14" viewBox="0 0 14 14" fill="none" xmlns="http://www.w3.org/2000/svg">
<g clip-path="url(#clip0_236_3114)">
<path d="M1.16666 7C1.16666 4.80011 1.16666 3.70017 1.85007 3.01675C2.53349 2.33334 3.63344 2.33334 5.83332 2.33334H8.16666C10.3665 2.33334 11.4665 2.33334 12.1499 3.01675C12.8333 3.70017 12.8333 4.80011 12.8333 7V8.16667C12.8333 10.3666 12.8333 11.4665 12.1499 12.1499C11.4665 12.8333 10.3665 12.8333 8.16666 12.8333H5.83332C3.63344 12.8333 2.53349 12.8333 1.85007 12.1499C1.16666 11.4665 1.16666 10.3666 1.16666 8.16667V7Z" stroke="#202020"/>
<path d="M4.08334 2.33334V1.45834" stroke="#202020" stroke-linecap="round"/>
<path d="M9.91666 2.33334V1.45834" stroke="#202020" stroke-linecap="round"/>
<path d="M1.45834 5.25H12.5417" stroke="#202020" stroke-linecap="round"/>
<path d="M10.5 9.91667C10.5 10.2388 10.2388 10.5 9.91668 10.5C9.59451 10.5 9.33334 10.2388 9.33334 9.91667C9.33334 9.5945 9.59451 9.33333 9.91668 9.33333C10.2388 9.33333 10.5 9.5945 10.5 9.91667Z" fill="#202020"/>
<path d="M10.5 7.58333C10.5 7.9055 10.2388 8.16667 9.91668 8.16667C9.59451 8.16667 9.33334 7.9055 9.33334 7.58333C9.33334 7.26117 9.59451 7 9.91668 7C10.2388 7 10.5 7.26117 10.5 7.58333Z" fill="#202020"/>
<path d="M7.58332 9.91667C7.58332 10.2388 7.32216 10.5 6.99999 10.5C6.67782 10.5 6.41666 10.2388 6.41666 9.91667C6.41666 9.5945 6.67782 9.33333 6.99999 9.33333C7.32216 9.33333 7.58332 9.5945 7.58332 9.91667Z" fill="#202020"/>
<path d="M7.58332 7.58333C7.58332 7.9055 7.32216 8.16667 6.99999 8.16667C6.67782 8.16667 6.41666 7.9055 6.41666 7.58333C6.41666 7.26117 6.67782 7 6.99999 7C7.32216 7 7.58332 7.26117 7.58332 7.58333Z" fill="#202020"/>
<path d="M4.66667 9.91667C4.66667 10.2388 4.4055 10.5 4.08333 10.5C3.76117 10.5 3.5 10.2388 3.5 9.91667C3.5 9.5945 3.76117 9.33333 4.08333 9.33333C4.4055 9.33333 4.66667 9.5945 4.66667 9.91667Z" fill="#202020"/>
<path d="M4.66667 7.58333C4.66667 7.9055 4.4055 8.16667 4.08333 8.16667C3.76117 8.16667 3.5 7.9055 3.5 7.58333C3.5 7.26117 3.76117 7 4.08333 7C4.4055 7 4.66667 7.26117 4.66667 7.58333Z" fill="#202020"/>
</g>
<defs>
<clipPath id="clip0_236_3114">
<rect width="14" height="14" rx="5" fill="white"/>
</clipPath>
</defs>
</svg>
